<svg width="32" height="32" viewBox="0 0 32 32" xmlns="http://www.w3.org/2000/svg">
<path d="M16.1145 -0.0114746C9.555 -0.0114746 4 5.57503 4 12.193C4 19.123 10.4385 26.21 14.7695 31.191C14.786 31.211 15.486 31.9885 16.3485 31.9885H16.425C17.2875 31.9885 17.9825 31.211 18 31.191C22.0645 26.5185 28 18.8145 28 12.193C28 5.57503 23.667 -0.0114746 16.1145 -0.0114746ZM16.5155 29.8495C16.4805 29.8845 16.4295 29.9236 16.3845 29.9561C16.3385 29.9246 16.2885 29.8846 16.2515 29.8496L15.7285 29.2481C11.6225 24.5375 6 18.0871 6 12.193C6 6.66153 10.632 1.98803 16.1145 1.98803C22.9435 1.98803 26 7.11303 26 12.193C26 16.6675 22.8085 22.6085 16.5155 29.8495ZM16.035 6.04403C12.7215 6.04403 10.035 8.73053 10.035 12.044C10.035 15.3575 12.7215 18.044 16.035 18.044C19.3485 18.044 22.035 15.3575 22.035 12.044C22.035 8.73053 19.3485 6.04403 16.035 6.04403ZM16.035 16.044C13.8295 16.044 11.9889 14.206 11.9889 12C11.9889 9.79453 13.7834 8.00003 15.9889 8.00003C18.1959 8.00003 19.9889 9.79453 19.9889 12C19.9899 14.206 18.242 16.044 16.035 16.044Z" fill="currentColor"/>
</svg>
