<svg width="169" height="48" viewBox="0 0 169 48" fill="none" xmlns="http://www.w3.org/2000/svg">
<g opacity="0.6" clip-path="url(#clip0_59_695)">
<path d="M39.5812 10.8648L29.3708 4.80084V8.60334L37.9799 13.7172V34.3772L20.5912 44.7072L3.20051 34.3772V13.7172L11.9253 8.53443V4.73193L1.60127 10.8648C0.610878 11.4536 0 12.5416 0 13.7172V34.3772C0 35.5549 0.610878 36.6408 1.60127 37.2296L18.99 47.5596C19.4852 47.854 20.0372 48.0002 20.5912 48.0002C21.1453 48.0002 21.6973 47.854 22.1925 47.5596L39.5812 37.2296C40.5716 36.6408 41.1825 35.5528 41.1825 34.3772V13.7172C41.1825 12.5395 40.5716 11.4536 39.5812 10.8648Z" fill="white"/>
<path d="M17.7604 11.253H23.4206V5.51895L27.0696 7.68643V3.88393L20.5326 0L14.1113 3.81294V7.61752L17.7604 5.45004V11.253Z" fill="white"/>
<path d="M23.4204 13.667H17.7602C17.7602 22.8569 11.8482 24.6172 5.75977 24.6172V32.8361L20.5913 41.6459L35.4228 32.8361V24.6172C27.8427 24.6172 23.4225 22.007 23.4225 13.667H23.4204Z" fill="white"/>
<path d="M169 33.6772H137.143V34.9949H169V33.6772Z" fill="white"/>
<path d="M86.5318 33.6772H54.6748V34.9949H86.5318V33.6772Z" fill="white"/>
<path d="M106.69 10.7517H106.333L106.325 10.7601C106.313 10.7601 106.301 10.7601 106.297 10.7622C105.986 11.0796 102.999 14.7756 102.879 14.9364C103.157 15.3081 104.661 17.1456 104.756 17.2291C104.76 17.2229 104.766 17.2187 104.77 17.2124L104.809 17.2584L110.144 10.7497H109.866C108.886 10.7309 107.397 10.7371 106.692 10.7497L106.69 10.7517Z" fill="white"/>
<path d="M97.4701 10.752C96.6908 10.7394 94.8784 10.7311 94.16 10.752H94.0342L94.0382 10.7562C94.0382 10.7562 94.0362 10.7562 94.0342 10.7562C96.0495 13.2786 98.1277 15.7405 100.149 18.2588C98.1155 20.7521 96.0738 23.2328 94.0423 25.7281C94.0443 25.7302 94.0484 25.7302 94.0504 25.7323L94.0342 25.7532H97.8435L102.067 20.6017C103.145 21.8588 105.077 24.2977 106.284 25.7448C106.298 25.7448 106.313 25.7448 106.325 25.7448L106.331 25.7532H110.14L97.8415 10.752H97.4661H97.4701Z" fill="white"/>
<path d="M81.1937 10.7603L73.7637 25.7552H77.4228L83.3591 13.7755L86.4886 20.088H81.8756L80.463 22.9404H87.9011L89.2954 25.7552H92.9546L85.5246 10.7603H81.1937Z" fill="white"/>
<path d="M118.236 10.7603L110.806 25.7552H114.465L120.402 13.7755L123.531 20.088H118.918L117.506 22.9404H124.944L126.338 25.7552H129.997L122.567 10.7603H118.236Z" fill="white"/>
<path d="M157.241 10.7603L149.811 25.7552H153.47L159.406 13.7755L162.534 20.088H157.923L156.508 22.9404H163.946L165.343 25.7552H169L161.57 10.7603H157.241Z" fill="white"/>
<path d="M149.078 13.9359C149.078 12.1714 147.688 10.7432 145.975 10.7432H132.493V13.5851H144.832C145.514 13.5851 146.066 14.1531 146.066 14.8547V17.1245C146.066 17.8261 145.514 18.3941 144.832 18.3941H135.552V15.2013H132.493V25.7485H135.552V21.2361H145.977C147.692 21.2361 149.08 19.8057 149.08 18.0433V13.9401L149.078 13.9359Z" fill="white"/>
<path d="M68.6495 10.7437H57.9114C56.1234 10.7437 54.6724 12.2346 54.6724 14.0763V22.4184C54.6724 24.2581 56.1214 25.7511 57.9114 25.7511H68.6495C70.0904 25.7511 71.2594 24.5483 71.2594 23.0657V20.3303H68.343V21.9716C68.343 22.4832 67.9392 22.8966 67.444 22.8966H58.6522C58.155 22.8966 57.7531 22.4811 57.7531 21.9716V14.5127C57.7531 14.0011 58.157 13.5877 58.6522 13.5877H67.444C67.9412 13.5877 68.343 14.0032 68.343 14.5127V15.9055H71.2594V13.4311C71.2594 11.9485 70.0904 10.7457 68.6495 10.7457V10.7437Z" fill="white"/>
<path d="M122.49 30.7959V37.8768H123.933V32.1365H129.908V37.8768H131.353V30.7959H122.49Z" fill="white"/>
<path d="M92.3237 31.0569V32.1365V37.8768H93.7667V32.1365H98.6212V30.7959H92.3237V31.0569Z" fill="white"/>
<path d="M107.462 30.7959H101.099V32.1365H106.922C107.242 32.1365 107.504 32.4038 107.504 32.7358V33.807C107.504 34.1369 107.244 34.4063 106.922 34.4063H102.542V32.8987H101.099V37.8768H102.542V35.7469H107.462C108.271 35.7469 108.927 35.0724 108.927 34.2392V32.3035C108.927 31.4704 108.271 30.7959 107.462 30.7959Z" fill="white"/>
<path d="M118.049 30.8001V33.8759H113.406C113.24 33.8759 113.106 33.7381 113.106 33.5669V30.7959H111.663V33.9636C111.663 34.6464 112.2 35.1977 112.862 35.1977H118.049V36.2251C118.049 36.3963 117.915 36.5341 117.749 36.5341H111.663C111.663 37.2754 112.247 37.8747 112.968 37.8747H118.189C118.91 37.8747 119.494 37.2733 119.494 36.5341V30.8001H118.051H118.049Z" fill="white"/>
</g>
<defs>
<clipPath id="clip0_59_695">
<rect width="169" height="48" fill="white"/>
</clipPath>
</defs>
</svg>
