<svg width="84" height="80" viewBox="0 0 84 80" fill="none" xmlns="http://www.w3.org/2000/svg">
<g id="_&#208;&#161;&#208;&#187;&#208;&#190;&#208;&#185;_1" clip-path="url(#clip0_59_418)">
<path id="Vector" d="M61.1361 8.68608C49.4109 9.16013 40.0988 18.813 40.0988 30.601C40.0988 38.4658 44.2636 45.4909 50.7071 49.3766V70.4181C50.7071 71.1646 51.5662 71.6237 52.1863 71.131L61.1324 64.4531V78.156L1.82288 78.0664V1.82531H61.1361V8.68608ZM52.5187 50.3658C58.5251 53.2475 65.5737 53.2475 71.5651 50.3658V68.5965L62.619 61.9186C62.2716 61.6461 61.8159 61.6461 61.4685 61.9186L52.5224 68.5965V50.3658H52.5187ZM73.4104 49.3804C85.5689 42.0269 87.6681 25.181 77.5715 15.0915C73.8101 11.3139 68.6591 8.92497 62.9627 8.68608V0.910788C62.9627 0.418066 62.5593 0 62.0513 0H0.915192C0.422127 0 0.00376892 0.403135 0.00376892 0.910788V78.9959C0.00376892 79.4886 0.407188 79.9067 0.915192 79.9067L62.0513 79.9963C62.5443 79.9963 62.9627 79.5931 62.9627 79.0855V64.4494L71.9461 71.1646C72.5475 71.62 73.4066 71.1646 73.4066 70.433V49.3729L73.4104 49.3804ZM47.8047 16.368C55.6564 8.52184 68.4013 8.52184 76.2716 16.368C84.127 24.2329 84.127 36.9541 76.2716 44.819C68.4013 52.6838 55.6751 52.6838 47.8047 44.819C39.9531 36.9727 39.9531 24.2367 47.8047 16.3718V16.368Z" fill="#1A4D70"/>
<path id="Vector_2" d="M55.376 30.0896C54.7746 29.0481 56.3621 28.1374 56.9448 29.1788L59.4475 33.52L68.2479 24.7256C69.0883 23.8858 70.3845 25.1624 69.5441 26.0209L59.9032 35.6551C59.4848 36.0732 58.7714 35.9836 58.4613 35.4722L55.376 30.0896Z" fill="#F9572B"/>
<path id="Vector_3" d="M62.0476 16.7898C69.664 16.7898 75.8721 22.9749 75.8721 30.6046C75.8721 38.2344 69.6826 44.4195 62.0476 44.4195C54.4126 44.4195 48.2232 38.2344 48.2232 30.6046C48.2232 22.9749 54.4126 16.7898 62.0476 16.7898ZM53.5759 39.0892C58.2488 43.7588 65.8465 43.7588 70.5231 39.0892C75.1997 34.4195 75.2147 26.8271 70.5231 22.1351C65.8315 17.443 58.2525 17.4654 53.5759 22.1351C48.8843 26.8047 48.8843 34.3971 53.5759 39.0892Z" fill="#F9572B"/>
<path id="Vector_4" d="M39.1127 18.0104C40.3192 18.0104 40.3192 16.1851 39.1127 16.1851H20.9627C19.7562 16.1851 19.7562 18.0104 20.9627 18.0104H39.1127Z" fill="#1A4D70"/>
<path id="Vector_5" d="M41.1747 12.5382C42.3812 12.5382 42.3812 10.7129 41.1747 10.7129H20.9591C19.7526 10.7129 19.7526 12.5382 20.9591 12.5382H41.1747Z" fill="#1A4D70"/>
<path id="Vector_6" d="M11.1015 9.26831H13.7312C15.8118 9.26831 17.4927 10.9667 17.4927 13.0458V15.655C17.4927 17.7342 15.8118 19.4326 13.7312 19.4326H11.1015C9.03963 19.4326 7.34006 17.7342 7.34006 15.655V13.0458C7.34006 10.9667 9.02096 9.26831 11.1015 9.26831ZM9.14796 15.655C9.14796 16.73 10.0444 17.6072 11.1015 17.6072H13.7312C14.792 17.6072 15.6661 16.73 15.6661 15.655V13.0458C15.6661 11.9708 14.7883 11.0936 13.7312 11.0936H11.1015C10.0407 11.0936 9.16664 11.9708 9.14796 13.0458V15.655Z" fill="#1A4D70"/>
<path id="Vector_7" d="M34.6752 35.0729C35.8817 35.0729 35.8817 33.2476 34.6752 33.2476H20.9628C19.7563 33.2476 19.7563 35.0729 20.9628 35.0729H34.6752Z" fill="#1A4D70"/>
<path id="Vector_8" d="M37.0692 29.5968C38.2757 29.5968 38.2757 27.7715 37.0692 27.7715H20.9438C19.7373 27.7715 19.7373 29.5968 20.9438 29.5968H37.0692Z" fill="#1A4D70"/>
<path id="Vector_9" d="M11.1015 26.3682H13.7312C15.8118 26.3682 17.4927 28.0666 17.4927 30.1457V32.7549C17.4927 34.834 15.8118 36.5324 13.7312 36.5324H11.1015C9.03963 36.5324 7.34006 34.834 7.34006 32.7549V30.1457C7.34006 28.0666 9.02096 26.3682 11.1015 26.3682ZM9.14796 32.7549C9.14796 33.8299 10.0444 34.7071 11.1015 34.7071H13.7312C14.792 34.7071 15.6661 33.8112 15.6661 32.7549V30.1457C15.6661 29.0707 14.7883 28.1935 13.7312 28.1935H11.1015C10.0407 28.1935 9.16664 29.0707 9.14796 30.1457V32.7549Z" fill="#1A4D70"/>
<path id="Vector_10" d="M42.7284 52.1351C43.9349 52.1351 43.9349 50.3098 42.7284 50.3098H20.944C19.7375 50.3098 19.7375 52.1351 20.944 52.1351H42.7284Z" fill="#1A4D70"/>
<path id="Vector_11" d="M36.976 46.6593C38.1825 46.6593 38.1825 44.834 36.976 44.834H20.9626C19.7561 44.834 19.7561 46.6593 20.9626 46.6593H36.976Z" fill="#1A4D70"/>
<path id="Vector_12" d="M11.1015 43.4678H13.7312C15.8118 43.4678 17.4927 45.1662 17.4927 47.2266V49.8545C17.4927 51.915 15.8118 53.6134 13.7312 53.6134H11.1015C9.03963 53.6134 7.34006 51.9336 7.34006 49.8545V47.2266C7.34006 45.1662 9.02096 43.4678 11.1015 43.4678ZM9.14796 49.8731C9.14796 50.9482 10.0444 51.8254 11.1015 51.8254H13.7312C14.792 51.8254 15.6661 50.9295 15.6661 49.8731V47.2453C15.6661 46.1852 14.7883 45.3117 13.7312 45.3117H11.1015C10.0407 45.3117 9.16664 46.1703 9.14796 47.2453V49.8731Z" fill="#1A4D70"/>
<path id="Vector_13" d="M11.1015 60.5637H13.7312C15.8118 60.5637 17.4927 62.2621 17.4927 64.3412V66.9504C17.4927 69.0296 15.8118 70.728 13.7312 70.728H11.1015C9.03963 70.728 7.34006 69.0296 7.34006 66.9504V64.3412C7.34006 62.2621 9.02096 60.5637 11.1015 60.5637ZM9.14796 66.9504C9.14796 68.0255 10.0444 68.9027 11.1015 68.9027H13.7312C14.792 68.9027 15.6661 68.0255 15.6661 66.9504V64.3412C15.6661 63.2662 14.7883 62.389 13.7312 62.389H11.1015C10.0407 62.389 9.16664 63.2849 9.14796 64.3412V66.9504Z" fill="#1A4D70"/>
<path id="Vector_14" d="M20.9437 67.5737C19.7372 67.5737 19.7372 69.399 20.9437 69.399H38.7313C39.9379 69.399 39.9379 67.5737 38.7313 67.5737H20.9437Z" fill="#1A4D70"/>
<path id="Vector_15" d="M20.944 61.8962C19.7375 61.8962 19.7375 63.7215 20.944 63.7215H32.0268C33.2333 63.7215 33.2333 61.8962 32.0268 61.8962H20.944Z" fill="#1A4D70"/>
</g>
<defs>
<clipPath id="clip0_59_418">
<rect width="84" height="80" fill="white" transform="matrix(-1 0 0 1 84 0)"/>
</clipPath>
</defs>
</svg>
