<svg width="80" height="79" viewBox="0 0 80 79" fill="none" xmlns="http://www.w3.org/2000/svg">
<g id="_&#208;&#161;&#208;&#187;&#208;&#190;&#208;&#185;_1" clip-path="url(#clip0_59_441)">
<path id="Vector" d="M0.324518 40.2841C0.532046 40.4889 0.811265 40.6044 1.10558 40.6044H40C40.2943 40.6044 40.5736 40.4927 40.7811 40.2841C40.9886 40.0792 41.1056 39.8036 41.1056 39.513C41.1169 31.6276 36.4268 24.4163 29.1633 21.1422L28.786 20.9745L29.0803 20.6915C31.4159 18.4417 32.7252 15.4283 32.7667 12.2063C32.8082 8.9843 31.5744 5.94111 29.2954 3.63544C26.9069 1.2143 23.7299 0 20.5528 0C17.3757 0 14.3949 1.13607 12.0215 3.42312C9.6859 5.67292 8.37659 8.68631 8.33508 11.9083C8.29358 15.1303 9.52742 18.1735 11.8065 20.4791C11.8781 20.5499 11.9498 20.6207 12.0215 20.6915L12.3196 20.9745L11.9423 21.1459C4.67882 24.42 -0.0112992 31.6276 2.04446e-05 39.5093C2.04446e-05 39.7999 0.113217 40.0755 0.324518 40.2804V40.2841ZM10.5462 12.0871C10.5424 6.64138 15.025 2.2051 20.5415 2.20138H20.549C26.0617 2.20138 30.5481 6.62648 30.5556 12.0685C30.5556 14.7056 29.518 17.1864 27.6314 19.0563C25.7448 20.9224 23.2318 21.9542 20.5603 21.9542H20.5528C18.6096 21.9542 16.723 21.4029 15.0967 20.3562C12.2555 18.5273 10.5537 15.4357 10.55 12.0871H10.5462ZM2.26396 38.1199C2.80353 31.0353 7.53138 24.9154 14.3081 22.5241L14.4326 22.4794L14.5458 22.5464C18.2474 24.677 22.8507 24.677 26.5522 22.5464L26.6654 22.4794L26.7899 22.5241C33.5667 24.9117 38.2945 31.0353 38.8379 38.1199L38.8605 38.4217H2.24132L2.26396 38.1199Z" fill="#1A4D70"/>
<path id="Vector_2" d="M51.1123 32.3763C51.282 32.3763 51.4556 32.3354 51.6065 32.2609L62.4848 26.8897H78.8945C79.5058 26.8897 80.0001 26.4017 80.0001 25.7983V3.85902C80.0001 3.56848 79.8869 3.29285 79.6756 3.08798C79.4681 2.88311 79.1888 2.76764 78.8945 2.76764H45.5543C44.9468 2.76764 44.4487 3.2556 44.4487 3.85902V25.802C44.4487 26.4054 44.943 26.8934 45.5543 26.8934H50.0067V31.285C50.0067 31.8884 50.5048 32.3763 51.1123 32.3763ZM46.6636 24.7069V4.9504H77.789V24.7069H62.2244C62.0546 24.7069 61.881 24.7479 61.7301 24.8224L52.2178 29.5157V25.7983C52.2178 25.1949 51.7235 24.7069 51.1123 24.7069H46.6598H46.6636Z" fill="#1A4D70"/>
<path id="Vector_3" d="M70.5594 10.9956H53.8893C53.278 10.9956 52.7837 11.4836 52.7837 12.087C52.7837 12.6904 53.2818 13.1784 53.8893 13.1784H70.5594C71.1706 13.1784 71.6649 12.6904 71.6649 12.087C71.6649 11.4836 71.1669 10.9956 70.5594 10.9956Z" fill="#1A4D70"/>
<path id="Vector_4" d="M70.5594 16.4788H53.8893C53.278 16.4788 52.7837 16.9667 52.7837 17.5701C52.7837 18.1736 53.2818 18.6615 53.8893 18.6615H70.5594C71.1706 18.6615 71.6649 18.1736 71.6649 17.5701C71.6649 16.9667 71.1669 16.4788 70.5594 16.4788Z" fill="#1A4D70"/>
<path id="Vector_5" d="M65.0051 79.0001H78.8982C79.5094 79.0001 80.0037 78.5121 80.0037 77.9087C80.0151 70.0232 75.3249 62.8119 68.0615 59.5378L67.6841 59.3665L67.9785 59.0834C72.8006 54.4385 72.8987 46.7877 68.1935 42.0274C63.4883 37.267 55.7381 37.1702 50.9159 41.8151C48.5803 44.0649 47.271 47.0782 47.2295 50.3002C47.188 53.5222 48.4218 56.5654 50.7008 58.8711C50.7725 58.9418 50.8442 59.0126 50.9159 59.0834L51.2102 59.3665L50.8329 59.5378C43.5694 62.8119 38.8831 70.0232 38.8906 77.905C38.8906 78.1955 39.0038 78.4711 39.2151 78.676C39.4227 78.8809 39.7019 78.9963 39.9962 78.9963H53.8892C54.5005 78.9963 54.9948 78.5047 54.9948 77.905C54.9948 77.3053 54.4967 76.8136 53.8892 76.8136H41.1357L41.1583 76.5119C41.6979 69.4273 46.4258 63.3073 53.2025 60.9197L53.327 60.875L53.4402 60.9421C57.1417 63.0727 61.7451 63.0727 65.4466 60.9421L65.5598 60.875L65.6843 60.9197C72.4611 63.3073 77.1889 69.431 77.7323 76.5156L77.7549 76.8173H65.0014C64.3901 76.8173 63.8958 77.309 63.8958 77.9087C63.8958 78.5084 64.3939 79.0001 65.0014 79.0001H65.0051ZM64.9033 58.7556C63.2468 59.8023 61.3489 60.3238 59.4472 60.3238C57.5455 60.3238 55.6475 59.7986 53.9911 58.7519C51.7498 57.3104 50.2141 55.0978 49.6594 52.5165C49.1048 49.9352 49.6028 47.2943 51.0631 45.0855C52.5195 42.8729 54.7646 41.3569 57.3795 40.8094C59.9943 40.2618 62.6695 40.7535 64.907 42.195C67.1483 43.6328 68.684 45.8491 69.2387 48.4304C69.7934 51.0117 69.2953 53.6526 67.8351 55.8614C67.0691 57.0236 66.0805 57.9995 64.9033 58.7556Z" fill="#1A4D70"/>
<path id="Vector_6" d="M34.4458 46.646H1.10556C0.498066 46.646 0 47.1377 0 47.7374V69.6804C0 69.9709 0.113197 70.2465 0.324498 70.4514C0.532025 70.6563 0.811244 70.7717 1.10556 70.7717H17.5153L28.3935 76.143C28.6577 76.2733 28.9595 76.2957 29.2387 76.2026C29.518 76.1094 29.7444 75.9157 29.8764 75.655C29.9519 75.506 29.9934 75.3347 29.9934 75.1671V70.7755H34.4458C34.7401 70.7755 35.0193 70.6637 35.2269 70.4551C35.4344 70.2503 35.5514 69.9746 35.5514 69.6841V47.7411C35.5514 47.1377 35.0571 46.6497 34.4458 46.6497V46.646ZM33.3403 68.5853H28.8916C28.2803 68.5853 27.7861 69.0732 27.7861 69.6766V73.3978L18.2737 68.7007C18.119 68.6262 17.9492 68.5853 17.7795 68.5853H2.21111V48.8288H33.3365V68.5853H33.3403Z" fill="#F9572B"/>
<path id="Vector_7" d="M26.1106 54.8743H9.44052C8.82925 54.8743 8.33496 55.3659 8.33496 55.9656C8.33496 56.5653 8.83303 57.057 9.44052 57.057H26.1106C26.7219 57.057 27.2162 56.5653 27.2162 55.9656C27.2162 55.3659 26.7181 54.8743 26.1106 54.8743Z" fill="#F9572B"/>
<path id="Vector_8" d="M26.1106 60.3608H9.44052C8.82925 60.3608 8.33496 60.8525 8.33496 61.4522C8.33496 62.0519 8.83303 62.5436 9.44052 62.5436H26.1106C26.7219 62.5436 27.2162 62.0519 27.2162 61.4522C27.2162 60.8525 26.7181 60.3608 26.1106 60.3608Z" fill="#F9572B"/>
</g>
<defs>
<clipPath id="clip0_59_441">
<rect width="80" height="79" fill="white"/>
</clipPath>
</defs>
</svg>
