<svg width="114" height="51" viewBox="0 0 114 51" fill="none" xmlns="http://www.w3.org/2000/svg">
<g id="_&#208;&#161;&#208;&#187;&#208;&#190;&#208;&#185;_1" clip-path="url(#clip0_59_395)">
<path id="Vector" d="M71.6956 32.1028H38.8057V23.9417H71.6956V32.1028ZM40.6825 30.2344H69.8188V25.8101H40.6825V30.2344Z" fill="#F9572B"/>
<path id="Vector_2" d="M71.6956 22.9852H38.8057V14.824H71.6956V22.9852ZM40.6825 21.1168H69.8188V16.6924H40.6825V21.1168Z" fill="#F9572B"/>
<path id="Vector_3" d="M71.6956 13.8673H38.8057V5.70239H71.6956V13.8636V13.8673ZM40.6825 11.9989H69.8188V7.57454H40.6825V11.9989Z" fill="#F9572B"/>
<path id="Vector_4" d="M114 32.1028H80.3594V23.9417H114V32.1028ZM82.2362 30.2344H112.123V25.8101H82.2362V30.2344Z" fill="#F9572B"/>
<path id="Vector_5" d="M114 22.9852H80.3594V14.824H114V22.9852ZM82.2362 21.1168H112.123V16.6924H82.2362V21.1168Z" fill="#F9572B"/>
<path id="Vector_6" d="M114 13.8673H80.3594V5.70239H114V13.8636V13.8673ZM82.2362 11.9989H112.123V7.57454H82.2362V11.9989Z" fill="#F9572B"/>
<path id="Vector_7" d="M97.7276 45.9591L97.7163 44.0907L99.0263 44.0832L103.219 38.9227V35.8697L98.3957 35.8809L98.3882 34.0125L105.096 33.9976V39.5804L99.931 45.9441L97.7276 45.9591Z" fill="#1A4D70"/>
<path id="Vector_8" d="M21.6739 51C16.9855 51 13.168 47.1996 13.168 42.5249C13.168 37.8501 16.9817 34.0012 21.6739 34.0012C26.366 34.0012 30.1798 37.824 30.1798 42.5249C30.1798 47.2258 26.366 51 21.6739 51ZM21.6739 35.8696C18.0178 35.8696 15.0448 38.8553 15.0448 42.5249C15.0448 46.1944 18.0178 49.1316 21.6739 49.1316C25.33 49.1316 28.3029 46.1683 28.3029 42.5249C28.3029 38.8815 25.33 35.8696 21.6739 35.8696Z" fill="#1A4D70"/>
<path id="Vector_9" d="M68.1411 51C63.4528 51 59.6353 47.1996 59.6353 42.5249C59.6353 37.8501 63.449 34.0012 68.1411 34.0012C72.8333 34.0012 76.647 37.824 76.647 42.5249C76.647 47.2258 72.8333 51 68.1411 51ZM68.1411 35.8696C64.485 35.8696 61.5121 38.8553 61.5121 42.5249C61.5121 46.1944 64.485 49.1316 68.1411 49.1316C71.7973 49.1316 74.7702 46.1683 74.7702 42.5249C74.7702 38.8815 71.7973 35.8696 68.1411 35.8696Z" fill="#1A4D70"/>
<path id="Vector_10" d="M87.5137 51C82.8253 51 79.0078 47.1996 79.0078 42.5249C79.0078 37.8501 82.8216 34.0012 87.5137 34.0012C92.2058 34.0012 96.0196 37.824 96.0196 42.5249C96.0196 47.2258 92.2058 51 87.5137 51ZM87.5137 35.8696C83.8576 35.8696 80.8847 38.8553 80.8847 42.5249C80.8847 46.1944 83.8576 49.1316 87.5137 49.1316C91.1698 49.1316 94.1428 46.1683 94.1428 42.5249C94.1428 38.8815 91.1698 35.8696 87.5137 35.8696Z" fill="#1A4D70"/>
<path id="Vector_11" d="M57.2629 44.0906H32.7212V45.959H57.2629V44.0906Z" fill="#1A4D70"/>
<path id="Vector_12" d="M25.2287 10.3583V16.9799L19.0051 17.9852L17.5299 18.2243L17.4323 19.7078L17.132 24.263H12.8753C13.9338 20.2497 17.2859 12.649 18.5697 10.3621H25.225M27.1018 8.49365H17.6237C16.9931 8.49365 10.6719 22.3497 10.6719 26.1314H18.8887L19.3054 19.8311L27.1018 18.5718V8.49365Z" fill="#1A4D70"/>
<path id="Vector_13" d="M78.768 32.1029H73.6592V0H78.768V32.1029ZM75.536 30.2345H76.8911V1.86841H75.536V30.2345Z" fill="#1A4D70"/>
<path id="Vector_14" d="M11.4075 45.959H1.7755C0.795785 45.959 0 45.1668 0 44.1915V39.7709C0 38.7955 0.795785 38.0071 1.7755 38.0071H2.15463C2.15087 36.7739 2.13586 35.5894 2.1246 34.416C2.09081 31.1014 2.05703 27.97 2.19592 24.0501L2.20342 23.9679C2.56003 21.1167 3.76872 18.7849 6.2274 16.2215C7.42483 10.9787 8.92255 7.23444 10.8032 4.77562C13.1455 1.71517 15.668 1.25928 16.9592 1.25928H34.2488V34.0124H57.2665V35.8808H32.3719V3.12768H16.9592C16.0133 3.12768 14.1477 3.49015 12.2934 5.90787C10.5742 8.15369 9.12901 11.8457 7.99914 16.8829L7.94284 17.1407L7.75515 17.3313C5.49167 19.6444 4.38808 21.6884 4.06902 24.1547C3.93388 28.0148 3.96767 31.1127 4.00145 34.3936C4.01646 35.8696 4.03148 37.3606 4.03148 38.9413V39.8755H1.87685V44.0906H11.4075V45.959Z" fill="#1A4D70"/>
</g>
<defs>
<clipPath id="clip0_59_395">
<rect width="114" height="51" fill="white"/>
</clipPath>
</defs>
</svg>
