<svg width="244" height="68" viewBox="0 0 244 68" fill="none" xmlns="http://www.w3.org/2000/svg">
<g clip-path="url(#clip0_59_353)">
<path d="M57.1469 15.3915L42.4052 6.80089V12.1878L54.835 19.4324V48.7007L29.7294 63.3349L4.62086 48.7007V19.4324L17.2176 12.0901V6.70327L2.31189 15.3915C0.881977 16.2257 0 17.7669 0 19.4324V48.7007C0 50.3692 0.881977 51.9074 2.31189 52.7416L27.4175 67.3758C28.1324 67.7929 28.9294 68 29.7294 68C30.5293 68 31.3263 67.7929 32.0413 67.3758L57.1469 52.7416C58.5768 51.9074 59.4587 50.3662 59.4587 48.7007V19.4324C59.4587 17.764 58.5768 16.2257 57.1469 15.3915Z" fill="#F9572B"/>
<path d="M25.642 15.9417H33.8142V7.81851L39.0826 10.8891V5.50224L29.6446 0L20.3735 5.40166V10.7915L25.642 7.72089V15.9417Z" fill="#1A4D70"/>
<path d="M33.8141 19.3614H25.6419C25.6419 32.3804 17.1064 34.8741 8.31592 34.8741V46.5176L29.7295 58.9982L51.1431 46.5176V34.8741C40.1989 34.8741 33.8171 31.1764 33.8171 19.3614H33.8141Z" fill="#1A4D70"/>
<path d="M244 47.7098H198.005V49.5764H244V47.7098Z" fill="#F9572B"/>
<path d="M124.933 47.7098H78.9385V49.5764H124.933V47.7098Z" fill="#F9572B"/>
<path d="M154.038 15.2317H153.523L153.511 15.2436C153.493 15.2436 153.476 15.2436 153.47 15.2465C153.022 15.6962 148.709 20.9322 148.536 21.16C148.937 21.6865 151.108 24.2897 151.246 24.4081C151.252 24.3992 151.261 24.3933 151.267 24.3844L151.322 24.4495L159.026 15.2288H158.624C157.209 15.2022 155.058 15.211 154.041 15.2288L154.038 15.2317Z" fill="#1A4D70"/>
<path d="M140.727 15.2317C139.602 15.214 136.985 15.2022 135.948 15.2317H135.766L135.772 15.2377C135.772 15.2377 135.769 15.2377 135.766 15.2377C138.676 18.8112 141.676 22.2989 144.595 25.8664C141.659 29.3985 138.711 32.9129 135.778 36.4479C135.781 36.4509 135.787 36.4509 135.79 36.4538L135.766 36.4834H141.266L147.364 29.1855C148.92 30.9664 151.709 34.4215 153.453 36.4716C153.473 36.4716 153.494 36.4716 153.511 36.4716L153.52 36.4834H159.02L141.263 15.2317H140.721H140.727Z" fill="#1A4D70"/>
<path d="M117.227 15.2436L106.5 36.4864H111.783L120.353 19.5152L124.872 28.4578H118.211L116.172 32.4987H126.911L128.924 36.4864H134.207L123.48 15.2436H117.227Z" fill="#1A4D70"/>
<path d="M170.708 15.2436L159.981 36.4864H165.264L173.835 19.5152L178.353 28.4578H171.693L169.653 32.4987H180.392L182.405 36.4864H187.689L176.961 15.2436H170.708Z" fill="#1A4D70"/>
<path d="M227.023 15.2436L216.295 36.4864H221.578L230.149 19.5152L234.665 28.4578H228.007L225.965 32.4987H236.704L238.72 36.4864H244L233.273 15.2436H227.023Z" fill="#1A4D70"/>
<path d="M215.238 19.743C215.238 17.2433 213.231 15.2199 210.758 15.2199H191.292V19.246H209.108C210.092 19.246 210.889 20.0506 210.889 21.0446V24.2601C210.889 25.2541 210.092 26.0587 209.108 26.0587H195.708V21.5357H191.292V36.4775H195.708V30.0848H210.76C213.236 30.0848 215.241 28.0585 215.241 25.5618V19.7489L215.238 19.743Z" fill="#1A4D70"/>
<path d="M99.1155 15.2202H83.6121C81.0306 15.2202 78.9355 17.3323 78.9355 19.9415V31.7594C78.9355 34.3656 81.0277 36.4807 83.6121 36.4807H99.1155C101.196 36.4807 102.884 34.7768 102.884 32.6765V28.8012H98.6731V31.1264C98.6731 31.8511 98.09 32.4369 97.375 32.4369H84.6816C83.9637 32.4369 83.3835 31.8482 83.3835 31.1264V20.5597C83.3835 19.835 83.9666 19.2492 84.6816 19.2492H97.375C98.0929 19.2492 98.6731 19.8379 98.6731 20.5597V22.5328H102.884V19.0274C102.884 16.9271 101.196 15.2231 99.1155 15.2231V15.2202Z" fill="#1A4D70"/>
<path d="M176.85 43.6274V53.6587H178.933V45.5266H187.559V53.6587H189.646V43.6274H176.85Z" fill="#F9572B"/>
<path d="M133.296 43.9972V45.5266V53.6587H135.379V45.5266H142.388V43.6274H133.296V43.9972Z" fill="#F9572B"/>
<path d="M155.152 43.6274H145.966V45.5266H154.372C154.835 45.5266 155.213 45.9053 155.213 46.3756V47.8932C155.213 48.3606 154.838 48.7422 154.372 48.7422H148.049V46.6063H145.966V53.6587H148.049V50.6413H155.152C156.321 50.6413 157.267 49.6858 157.267 48.5055V45.7633C157.267 44.5829 156.321 43.6274 155.152 43.6274Z" fill="#F9572B"/>
<path d="M170.438 43.6334V47.9908H163.734C163.494 47.9908 163.301 47.7955 163.301 47.553V43.6274H161.217V48.115C161.217 49.0824 161.994 49.8633 162.949 49.8633H170.438V51.3187C170.438 51.5613 170.245 51.7566 170.005 51.7566H161.217C161.217 52.8067 162.061 53.6557 163.101 53.6557H170.641C171.681 53.6557 172.525 52.8038 172.525 51.7566V43.6334H170.441H170.438Z" fill="#F9572B"/>
</g>
<defs>
<clipPath id="clip0_59_353">
<rect width="244" height="68" fill="white"/>
</clipPath>
</defs>
</svg>
