<svg width="180" height="107" viewBox="0 0 180 107" fill="none" xmlns="http://www.w3.org/2000/svg">
<path d="M39.4182 3.57554C43.1724 1.36844 47.8276 1.36843 51.5818 3.57554L85.0818 23.2706C88.7484 25.4263 91 29.3619 91 33.6153V73.3847C91 77.6381 88.7484 81.5737 85.0818 83.7294L51.5818 103.424C47.8276 105.632 43.1724 105.632 39.4182 103.424L5.91825 83.7294C2.25158 81.5737 0 77.6381 0 73.3847V33.6153C0 29.3619 2.25157 25.4263 5.91824 23.2706L39.4182 3.57554Z" fill="white"/>
<path d="M62.2 80.1599V85.9999H19V74.7999C19 60.7999 27.56 58.9599 40.28 57.8399C53.8 56.6399 55.56 54.1599 55.56 44.4799C55.56 35.0399 51.8 31.2799 41 31.2799C28.12 31.2799 25.4 35.6799 25.4 43.9999V46.4799H19C19 30.4799 23.96 25.4399 41.16 25.4399C55.64 25.4399 62.2 30.4799 62.2 44.5599C62.2 59.6799 57.08 62.0799 42.04 63.6799C27.72 65.1999 25.4 67.1199 25.4 75.4399V80.1599H62.2Z" fill="#F9572B"/>
<path d="M76.0762 56.3999V26.1599H116.396V31.9999H82.4762V49.9199C86.0762 45.1199 92.7163 44.9599 98.1563 44.9599C112.396 44.9599 118.556 49.7599 118.556 63.8399C118.556 81.1199 114.556 86.6399 97.0363 86.6399C82.7963 86.6399 74.7962 85.5199 74.7962 68.7999H81.4363C81.4363 78.7999 83.0363 80.7999 97.0363 80.7999C107.436 80.7999 111.916 78.4799 111.916 67.7599C111.916 54.7999 109.756 50.7999 98.2363 50.7999C85.5163 50.7999 83.5962 52.1599 82.4762 56.3999H76.0762Z" fill="#F9572B"/>
<path d="M126.278 53.5999H144.678V36.2399H148.518V53.5999H167.078V57.3599H148.518V74.7199H144.678V57.3599H126.278V53.5999Z" fill="#F9572B"/>
</svg>
