<svg width="120" height="107" viewBox="0 0 120 107" fill="none" xmlns="http://www.w3.org/2000/svg">
<path d="M39.4182 3.57554C43.1724 1.36844 47.8276 1.36843 51.5818 3.57554L85.0818 23.2706C88.7484 25.4263 91 29.3619 91 33.6153V73.3847C91 77.6381 88.7484 81.5737 85.0818 83.7294L51.5818 103.424C47.8276 105.632 43.1724 105.632 39.4182 103.424L5.91825 83.7294C2.25158 81.5737 0 77.6381 0 73.3847V33.6153C0 29.3619 2.25157 25.4263 5.91824 23.2706L39.4182 3.57554Z" fill="white"/>
<path d="M41.32 57.92C28.36 57.92 25.64 60.72 25.64 69.44C25.64 78.16 28.36 80.8 41.4 80.8C54.36 80.8 57.16 78.32 57.16 69.2C57.16 60.72 54.36 57.92 41.32 57.92ZM41.32 31.36C29 31.36 26.52 34.16 26.52 41.52C26.52 50.08 28.36 52.24 41.32 52.24C54.84 52.24 56.28 49.44 56.28 41.6C56.28 34.4 53.96 31.36 41.32 31.36ZM29.32 54.8C20.92 53.12 19.88 48.48 19.88 41.6C19.88 29.52 25.32 25.52 41.56 25.52C57.72 25.52 62.92 29.52 62.92 41.52C62.92 48.24 61.8 53.04 53.32 54.8C61.4 56.24 63.8 61.36 63.8 68.8C63.8 81.92 60.04 86.64 41.32 86.64C22.92 86.64 19 81.84 19 68.48C19 61.36 20.68 56.48 29.32 54.8Z" fill="#F9572B"/>
<path d="M71.5963 53.6H89.9963V36.24H93.8363V53.6H112.396V57.36H93.8363V74.72H89.9963V57.36H71.5963V53.6Z" fill="#F9572B"/>
</svg>
