<svg width="180" height="107" viewBox="0 0 180 107" fill="none" xmlns="http://www.w3.org/2000/svg">
<path d="M39.4182 3.57554C43.1724 1.36844 47.8276 1.36843 51.5818 3.57554L85.0818 23.2706C88.7484 25.4263 91 29.3619 91 33.6153V73.3847C91 77.6381 88.7484 81.5737 85.0818 83.7294L51.5818 103.424C47.8276 105.632 43.1724 105.632 39.4182 103.424L5.91825 83.7294C2.25158 81.5737 0 77.6381 0 73.3847V33.6153C0 29.3619 2.25157 25.4263 5.91824 23.2706L39.4182 3.57554Z" fill="white"/>
<path d="M60.2 80.1599V85.9999H17V74.7999C17 60.7999 25.56 58.9599 38.28 57.8399C51.8 56.6399 53.56 54.1599 53.56 44.4799C53.56 35.0399 49.8 31.2799 39 31.2799C26.12 31.2799 23.4 35.6799 23.4 43.9999V46.4799H17C17 30.4799 21.96 25.4399 39.16 25.4399C53.64 25.4399 60.2 30.4799 60.2 44.5599C60.2 59.6799 55.08 62.0799 40.04 63.6799C25.72 65.1999 23.4 67.1199 23.4 75.4399V80.1599H60.2Z" fill="#F9572B"/>
<path d="M116.076 55.8399C116.076 80.6399 108.716 86.6399 90.7163 86.6399C72.7163 86.6399 65.3563 80.6399 65.3563 55.8399C65.3563 31.0399 72.6363 25.4399 90.7163 25.4399C108.716 25.4399 116.076 31.0399 116.076 55.8399ZM109.436 55.8399C109.436 35.4399 106.076 31.2799 90.7163 31.2799C75.2763 31.2799 71.9963 35.4399 71.9963 55.7599C71.9963 75.9999 75.4363 80.7999 90.7163 80.7999C105.916 80.7999 109.436 75.9199 109.436 55.8399Z" fill="#F9572B"/>
<path d="M120.278 53.5999H138.678V36.2399H142.518V53.5999H161.078V57.3599H142.518V74.7199H138.678V57.3599H120.278V53.5999Z" fill="#F9572B"/>
</svg>
